<?xml version="1.0" encoding="UTF-8" standalone="no"?>
<svg
   xmlns:dc="http://purl.org/dc/elements/1.1/"
   xmlns:cc="http://creativecommons.org/ns#"
   xmlns:rdf="http://www.w3.org/1999/02/22-rdf-syntax-ns#"
   xmlns:svg="http://www.w3.org/2000/svg"
   xmlns="http://www.w3.org/2000/svg"
   version="1.1"
   id="svg19262"
   viewBox="0 0 272.45307 299.99999"
   height="84.666664mm"
   width="76.892311mm">
  <defs
     id="defs19264">
    <clipPath
       clipPathUnits="userSpaceOnUse"
       id="clipPath9080">
      <path
         d="m 428.206,31.021 51.194,0 0,57.269 -51.194,0 0,-57.269 z"
         id="path9082" />
    </clipPath>
  </defs>
  <metadata
     id="metadata19267">
    <rdf:RDF>
      <cc:Work
         rdf:about="">
        <dc:format>image/svg+xml</dc:format>
        <dc:type
           rdf:resource="http://purl.org/dc/dcmitype/StillImage" />
        <dc:title></dc:title>
      </cc:Work>
    </rdf:RDF>
  </metadata>
  <g
     transform="translate(216.94078,-382.36221)"
     id="layer1">
    <g
       transform="matrix(5.4272245,0,0,-5.4272245,-2542.6868,853.58486)"
       id="g9078"
       clip-path="url(#clipPath9080)">
      <g
         id="g9084"
         transform="translate(454.7297,50.0461)">
        <path
           d="m 0,0 c 0,0 -2.406,0.178 -2.941,3.12 -0.535,2.941 1.426,9.893 1.693,11.409 0.268,1.515 0.456,18.886 -10.613,18.743 -11.262,-0.146 -13.007,-6.087 -14.166,-9.919 0,0 1.788,1.457 3.922,1.069 1.997,-0.362 4.1,-3.387 3.833,-8.735 -0.268,-5.348 -1.694,-13.726 -1.515,-16.311 0.178,-2.585 1.345,-8.726 8.645,-9.091 3.566,-0.179 6.418,1.871 10.607,2.406 L 0,0 Z"
           style="fill:#000000;fill-opacity:1;fill-rule:nonzero;stroke:none"
           id="path9086" />
      </g>
      <g
         id="g9088"
         transform="translate(454.7297,50.0461)">
        <path
           d="m 0,0 c 0,0 -2.406,0.178 -2.941,3.12 -0.535,2.941 1.426,9.893 1.693,11.409 0.268,1.515 0.456,18.886 -10.613,18.743 -11.262,-0.146 -13.007,-6.087 -14.166,-9.919 0,0 1.788,1.457 3.922,1.069 1.997,-0.362 4.1,-3.387 3.833,-8.735 -0.267,-5.348 -1.694,-13.726 -1.515,-16.311 0.178,-2.585 1.345,-8.726 8.645,-9.091 3.566,-0.179 6.418,1.871 10.607,2.406 L 0,0 Z"
           style="fill:none;stroke:#000000;stroke-width:0.178;stroke-linecap:butt;stroke-linejoin:miter;stroke-miterlimit:4;stroke-dasharray:none;stroke-opacity:1"
           id="path9090" />
      </g>
      <g
         id="g9092"
         transform="translate(454.4465,49.9793)">
        <path
           d="m 0,0 c 0,0 -2.356,1.264 -1.375,5.81 0.98,4.545 3.409,10.244 1.852,17.173 -1.265,5.634 -2.842,12.217 -15.203,10.074 0,0 7.439,-0.046 10.374,-5.003 0,0 -1.248,0.803 -1.871,1.07 0,0 3.161,-3.119 3.921,-7.576 0.753,-4.418 0.09,-7.577 -0.891,-10.785 C -4.173,7.554 -6.204,0.36 -0.092,-0.407 L 0,0 Z"
           style="fill:#ffffff;fill-opacity:1;fill-rule:nonzero;stroke:none"
           id="path9094" />
      </g>
      <g
         id="g9096"
         transform="translate(454.4465,49.9793)">
        <path
           d="m 0,0 c 0,0 -2.356,1.264 -1.375,5.81 0.98,4.545 3.409,10.244 1.852,17.173 -1.265,5.634 -2.842,12.217 -15.203,10.074 0,0 7.439,-0.046 10.374,-5.003 0,0 -1.248,0.803 -1.871,1.07 0,0 3.161,-3.119 3.921,-7.576 0.753,-4.418 0.09,-7.577 -0.891,-10.785 C -4.173,7.554 -6.204,0.36 -0.092,-0.407 L 0,0 Z"
           style="fill:none;stroke:#000000;stroke-width:0.28;stroke-linecap:butt;stroke-linejoin:miter;stroke-miterlimit:4;stroke-dasharray:none;stroke-opacity:1"
           id="path9098" />
      </g>
      <g
         id="g9100"
         transform="translate(453.8449,49.2537)">
        <path
           d="m 0,0 c 0,0 -6.265,-1.085 -6.304,5.134 0,0 0.44,-1.69 1.048,-2.19 0,0 -0.812,1.296 0.576,7.389 1.336,5.863 1.458,9.594 0.767,12.488 -0.528,2.21 -2.585,10.449 -11.947,10.658 0,0 -4.489,-0.705 -7.061,-4.427 0,0 11.091,5.253 14.638,-6.244 0,0 -0.739,1.608 -1.519,2.263 0,0 2.353,-4.253 -0.066,-12.726 -2.28,-7.984 -1.812,-8.977 0.13,-11.654 0,0 -1.273,0.929 -1.986,1.999 0,0 1.308,-6.294 11.947,-3.301 L 0,0 Z"
           style="fill:#ffffff;fill-opacity:1;fill-rule:nonzero;stroke:none"
           id="path9102" />
      </g>
      <g
         id="g9104"
         transform="translate(453.8449,49.2537)">
        <path
           d="m 0,0 c 0,0 -6.265,-1.085 -6.304,5.134 0,0 0.44,-1.69 1.048,-2.19 0,0 -0.812,1.296 0.576,7.389 1.336,5.863 1.458,9.594 0.767,12.488 -0.528,2.21 -2.585,10.449 -11.947,10.658 0,0 -4.489,-0.705 -7.061,-4.427 0,0 11.091,5.253 14.638,-6.244 0,0 -0.739,1.608 -1.519,2.263 0,0 2.353,-4.253 -0.066,-12.726 -2.28,-7.984 -1.812,-8.977 0.13,-11.654 0,0 -1.273,0.929 -1.986,1.999 0,0 1.308,-6.294 11.947,-3.301 L 0,0 Z"
           style="fill:none;stroke:#000000;stroke-width:0.28;stroke-linecap:butt;stroke-linejoin:miter;stroke-miterlimit:4;stroke-dasharray:none;stroke-opacity:1"
           id="path9106" />
      </g>
      <g
         id="g9108"
         transform="translate(461.1283,35.3371)">
        <path
           d="m 0,0 c 0,0 1.382,-0.796 3.914,-0.531 0,0 1.397,0.197 1.765,0.063 0.305,-0.111 1.337,-0.98 1.069,-1.693 0,0 0.707,-1.009 0.268,-1.426 -0.229,-0.217 -1.248,-0.09 -1.426,0.133 0,0 -1.159,-0.133 -2.273,0.357 -0.684,0.301 -3.608,1.473 -4.835,1.481 0,0 -0.932,0.485 -0.687,1.535 l 0.445,1.022 c 0,0 -0.539,2.938 -0.182,6.281 0.357,3.342 2.407,24.868 2.407,24.868 0,0 1.234,0.275 2.094,-0.045 1.56,-0.579 6.373,-5.827 9.939,-6.941 0,0 0.2,0.412 0.378,0.591 0.179,0.178 0.29,0.512 0.29,0.824 0,0.312 -0.067,0.758 0.379,0.891 0.445,0.134 1.047,-0.711 1.047,-1.292 0,-0.802 -0.535,-0.936 -0.535,-1.56 0,0 0.134,-0.178 1.025,-1.649 0.835,-1.377 1.783,-1.872 2.006,-2.05 0.223,-0.178 0.301,-0.59 0.089,-0.758 L 16.33,19.299 c 0,0 0.178,-0.445 -0.535,-0.49 -0.491,-0.031 -2.54,0.312 -4.768,3.922 0,0 -4.189,0.134 -8.022,2.184 0,0 -0.446,-1.783 0.134,-5.616 C 3.757,15.208 4.675,11.582 4.859,10.06 5.091,8.136 5.356,6.517 1.733,2.467 1.733,2.467 0.298,0.717 0,0"
           style="fill:#000000;fill-opacity:1;fill-rule:nonzero;stroke:none"
           id="path9110" />
      </g>
      <g
         id="g9112"
         transform="translate(461.1283,35.3371)">
        <path
           d="m 0,0 c 0,0 1.382,-0.796 3.914,-0.531 0,0 1.397,0.197 1.765,0.063 0.305,-0.111 1.337,-0.98 1.069,-1.693 0,0 0.707,-1.009 0.268,-1.426 -0.229,-0.217 -1.248,-0.09 -1.426,0.133 0,0 -1.159,-0.133 -2.273,0.357 -0.684,0.301 -3.608,1.473 -4.835,1.481 0,0 -0.932,0.485 -0.687,1.535 l 0.445,1.022 c 0,0 -0.539,2.938 -0.182,6.281 0.356,3.342 2.407,24.868 2.407,24.868 0,0 1.234,0.275 2.094,-0.045 1.56,-0.579 6.373,-5.827 9.939,-6.941 0,0 0.2,0.412 0.378,0.591 0.179,0.178 0.29,0.512 0.29,0.824 0,0.312 -0.067,0.758 0.379,0.891 0.445,0.134 1.047,-0.711 1.047,-1.292 0,-0.802 -0.535,-0.936 -0.535,-1.56 0,0 0.134,-0.178 1.025,-1.649 0.835,-1.377 1.783,-1.872 2.006,-2.05 0.223,-0.178 0.301,-0.59 0.089,-0.758 L 16.33,19.299 c 0,0 0.178,-0.445 -0.535,-0.49 -0.491,-0.031 -2.54,0.312 -4.768,3.922 0,0 -4.189,0.134 -8.022,2.184 0,0 -0.446,-1.783 0.134,-5.616 C 3.757,15.208 4.675,11.582 4.859,10.06 5.091,8.136 5.356,6.517 1.733,2.467 1.733,2.467 0.297,0.717 0,0 Z"
           style="fill:none;stroke:#000000;stroke-width:0.178;stroke-linecap:butt;stroke-linejoin:miter;stroke-miterlimit:4;stroke-dasharray:none;stroke-opacity:1"
           id="path9114" />
      </g>
      <g
         id="g9116"
         transform="translate(475.8541,57.3996)">
        <path
           d="m 0,0 c 0,0 1.393,-1.426 2.15,-1.783 0,0 0.899,-0.425 0.569,-1.103 -0.193,-0.394 -0.791,-0.2 -0.97,-0.156 0,0 0.1,0.435 -0.412,0.769 -0.373,0.244 -1.471,0.802 -1.961,1.515 0,0 0.401,0.312 0.624,0.758"
           style="fill:#000000;fill-opacity:1;fill-rule:nonzero;stroke:none"
           id="path9118" />
      </g>
      <g
         id="g9120"
         transform="translate(475.8541,57.3996)">
        <path
           d="m 0,0 c 0,0 1.393,-1.426 2.15,-1.783 0,0 0.899,-0.425 0.569,-1.103 -0.193,-0.394 -0.791,-0.2 -0.97,-0.156 0,0 0.1,0.435 -0.412,0.769 -0.373,0.244 -1.471,0.802 -1.961,1.515 0,0 0.401,0.312 0.624,0.758 z"
           style="fill:none;stroke:#ffffff;stroke-width:0.178;stroke-linecap:butt;stroke-linejoin:miter;stroke-miterlimit:4;stroke-dasharray:none;stroke-opacity:1"
           id="path9122" />
      </g>
      <g
         id="g9124"
         transform="translate(457.7134,35.3537)">
        <path
           d="m 0,0 c 0,0 -0.729,-0.414 -3.569,-0.177 -0.757,0.063 -2.674,0.267 -2.808,-1.115 0,0 -1.524,-0.681 -1.203,-2.05 0.115,-0.494 1.559,-0.178 1.559,-0.178 0,0 0.446,-0.223 1.248,0.045 0.55,0.183 2.269,1.453 6.022,1.574 0.542,0.018 0.679,0.158 0.679,0.158 0.262,0.166 0.157,0.84 0.157,0.84 -0.017,0.49 0.039,1.522 0.039,1.522 0,0 -0.161,5.027 0.329,6.586 l -1.47,23.71 c 0,0 -0.58,1.025 -1.694,1.025 -0.984,0 -1.738,-0.669 -2.451,-1.248 -0.713,-0.58 -6.061,-4.947 -8.601,-5.437 0,0 -0.179,0.312 -0.624,0.624 -0.314,0.219 -0.454,1.034 -0.535,1.381 0,0 -0.134,0.312 -0.535,0.045 -0.401,-0.268 -0.59,-1.204 -0.323,-1.917 0.267,-0.713 0.711,-0.941 0.234,-1.604 -0.643,-0.894 -3.387,-2.318 -3.61,-3.164 0,0 -0.936,-0.58 -0.891,-0.936 0.044,-0.357 0.936,-0.535 2.184,-0.134 0,0 1.052,-0.228 2.228,0.268 1.197,0.504 2.406,1.871 3.03,2.941 0,0 6.507,0.847 8.78,2.095 0,0 0.428,-3.471 -1.56,-9.092 C -5.303,10.339 -5.863,7.011 -2.12,3.126 -2.12,3.126 -0.402,1.452 0,0"
           style="fill:#000000;fill-opacity:1;fill-rule:nonzero;stroke:none"
           id="path9126" />
      </g>
      <g
         id="g9128"
         transform="translate(457.7134,35.3537)">
        <path
           d="m 0,0 c 0,0 -0.729,-0.414 -3.569,-0.177 -0.757,0.063 -2.674,0.267 -2.808,-1.115 0,0 -1.524,-0.681 -1.203,-2.05 0.115,-0.494 1.559,-0.178 1.559,-0.178 0,0 0.446,-0.223 1.248,0.045 0.55,0.183 2.269,1.453 6.022,1.574 0.542,0.018 0.679,0.158 0.679,0.158 0.262,0.166 0.157,0.84 0.157,0.84 -0.017,0.49 0.039,1.522 0.039,1.522 0,0 -0.161,5.027 0.329,6.586 l -1.47,23.71 c 0,0 -0.58,1.025 -1.694,1.025 -0.984,0 -1.738,-0.669 -2.451,-1.248 -0.713,-0.58 -6.061,-4.947 -8.601,-5.437 0,0 -0.179,0.312 -0.624,0.624 -0.314,0.219 -0.454,1.034 -0.535,1.381 0,0 -0.134,0.312 -0.535,0.045 -0.401,-0.268 -0.59,-1.204 -0.323,-1.917 0.267,-0.713 0.711,-0.941 0.234,-1.604 -0.643,-0.894 -3.387,-2.318 -3.61,-3.164 0,0 -0.936,-0.58 -0.891,-0.936 0.044,-0.357 0.936,-0.535 2.184,-0.134 0,0 1.052,-0.228 2.228,0.268 1.197,0.504 2.406,1.871 3.03,2.941 0,0 6.507,0.847 8.78,2.095 0,0 0.428,-3.471 -1.56,-9.092 C -5.303,10.339 -5.863,7.011 -2.12,3.126 -2.12,3.126 -0.402,1.452 0,0 Z"
           style="fill:none;stroke:#000000;stroke-width:0.178;stroke-linecap:butt;stroke-linejoin:miter;stroke-miterlimit:4;stroke-dasharray:none;stroke-opacity:1"
           id="path9130" />
      </g>
      <g
         id="g9132"
         transform="translate(451.6787,31.7382)">
        <path
           d="m 0,0 c -0.034,0.039 -0.098,0.141 -0.108,0.252 -0.023,0.234 0.234,1.181 1.649,1.883 0,0 -1.883,-0.669 -1.894,-1.883 0,0 0.005,-0.172 0.079,-0.299 C -0.149,-0.041 -0.08,-0.03 0,0"
           style="fill:#ffffff;fill-opacity:1;fill-rule:nonzero;stroke:none"
           id="path9134" />
      </g>
      <g
         id="g9136"
         transform="translate(462.6625,81.1979)">
        <path
           d="M 0,0 C 0,0 0.891,0.134 1.292,0.624 1.693,1.114 2.54,2.169 3.03,2.184 3.788,2.206 5.058,0.111 3.454,-1.894 L 0.624,-2.407 0,0 Z"
           style="fill:#000000;fill-opacity:1;fill-rule:nonzero;stroke:none"
           id="path9138" />
      </g>
      <g
         id="g9140"
         transform="translate(462.6625,81.1979)">
        <path
           d="M 0,0 C 0,0 0.891,0.134 1.292,0.624 1.693,1.114 2.54,2.169 3.03,2.184 3.788,2.206 5.058,0.111 3.454,-1.894 L 0.624,-2.407 0,0 Z"
           style="fill:none;stroke:#000000;stroke-width:0.178;stroke-linecap:butt;stroke-linejoin:miter;stroke-miterlimit:4;stroke-dasharray:none;stroke-opacity:1"
           id="path9142" />
      </g>
      <g
         id="g9144"
         transform="translate(455.6656,80.4848)">
        <path
           d="m 0,0 c 0,0 -1.255,2.79 -2.54,2.629 -1.426,-0.178 -1.025,-2.807 -1.025,-2.807 0,0 2.54,-2.095 3.298,-1.07 C 0.49,-0.223 0,0 0,0"
           style="fill:#000000;fill-opacity:1;fill-rule:nonzero;stroke:none"
           id="path9146" />
      </g>
      <g
         id="g9148"
         transform="translate(455.6656,80.4848)">
        <path
           d="m 0,0 c 0,0 -1.255,2.79 -2.54,2.629 -1.426,-0.178 -1.025,-2.807 -1.025,-2.807 0,0 2.54,-2.095 3.298,-1.07 C 0.49,-0.223 0,0 0,0 Z"
           style="fill:none;stroke:#000000;stroke-width:0.178;stroke-linecap:butt;stroke-linejoin:miter;stroke-miterlimit:4;stroke-dasharray:none;stroke-opacity:1"
           id="path9150" />
      </g>
      <g
         id="g9152"
         transform="translate(463.4646,78.925)">
        <path
           d="M 0,0 C 0,0 1.332,2.514 2.496,2.273 3.798,2.003 2.751,0.287 2.205,-0.121 1.917,-0.336 1.382,-0.669 0.178,-0.312 L 0,0 Z"
           style="fill:#ffffff;fill-opacity:1;fill-rule:nonzero;stroke:none"
           id="path9154" />
      </g>
      <g
         id="g9156"
         transform="translate(463.4646,78.925)">
        <path
           d="M 0,0 C 0,0 1.332,2.514 2.496,2.273 3.798,2.003 2.751,0.287 2.205,-0.121 1.917,-0.336 1.382,-0.669 0.178,-0.312 L 0,0 Z"
           style="fill:none;stroke:#000000;stroke-width:0.178;stroke-linecap:butt;stroke-linejoin:miter;stroke-miterlimit:4;stroke-dasharray:none;stroke-opacity:1"
           id="path9158" />
      </g>
      <g
         id="g9160"
         transform="translate(455.3982,79.2815)">
        <path
           d="m 0,0 c 0,0 -2.139,2.451 -2.941,1.961 -0.803,-0.49 -0.413,-1.979 0.535,-2.585 1.114,-0.713 1.96,0.134 2.317,0.268 L 0,0 Z"
           style="fill:#ffffff;fill-opacity:1;fill-rule:nonzero;stroke:none"
           id="path9162" />
      </g>
      <g
         id="g9164"
         transform="translate(455.3982,79.2815)">
        <path
           d="m 0,0 c 0,0 -2.139,2.451 -2.941,1.961 -0.803,-0.49 -0.413,-1.979 0.535,-2.585 1.114,-0.713 1.96,0.134 2.317,0.268 L 0,0 Z"
           style="fill:none;stroke:#000000;stroke-width:0.178;stroke-linecap:butt;stroke-linejoin:miter;stroke-miterlimit:4;stroke-dasharray:none;stroke-opacity:1"
           id="path9166" />
      </g>
      <g
         id="g9168"
         transform="translate(465.9604,74.7804)">
        <path
           d="m 0,0 c 0,0 -6.551,8.423 -1.426,9.448 0,0 -4.724,3.565 -8.958,-3.12 0,0 -0.847,-4.679 -2.763,-7.086 C -14.968,-3.045 -2.095,-4.368 0,0"
           style="fill:#000000;fill-opacity:1;fill-rule:nonzero;stroke:none"
           id="path9170" />
      </g>
      <g
         id="g9172"
         transform="translate(465.9604,74.7804)">
        <path
           d="m 0,0 c 0,0 -6.551,8.423 -1.426,9.448 0,0 -4.724,3.565 -8.958,-3.12 0,0 -0.847,-4.679 -2.763,-7.086 C -14.968,-3.045 -2.095,-4.368 0,0 Z"
           style="fill:none;stroke:#000000;stroke-width:0.178;stroke-linecap:butt;stroke-linejoin:miter;stroke-miterlimit:4;stroke-dasharray:none;stroke-opacity:1"
           id="path9174" />
      </g>
      <g
         id="g9176"
         transform="translate(455.4427,80.5294)">
        <path
           d="m 0,0 c 0,0 1.872,2.986 4.635,4.011 0,0 3.387,0.401 5.036,-0.936 0,0 -0.446,1.025 -0.981,1.337 L 9.037,4.361 c 0,0 -0.659,1.477 -3.243,1.299 0,0 0.891,0.356 1.381,0.49 0,0 -2.629,0.178 -4.145,-1.56 0,0 0.179,0.936 0.714,1.516 0,0 -1.478,0.174 -2.681,-3.392 0,0 0.055,0.878 -0.261,1.965 0,0 -0.044,-1.247 -0.401,-2.54 C 0.044,0.847 0.044,0.401 0,0"
           style="fill:#ffffff;fill-opacity:1;fill-rule:nonzero;stroke:none"
           id="path9178" />
      </g>
      <g
         id="g9180"
         transform="translate(455.4427,80.5294)">
        <path
           d="m 0,0 c 0,0 1.872,2.986 4.635,4.011 0,0 3.387,0.401 5.036,-0.936 0,0 -0.446,1.025 -0.981,1.337 L 9.037,4.361 c 0,0 -0.659,1.477 -3.243,1.299 0,0 0.891,0.357 1.381,0.49 0,0 -2.629,0.178 -4.145,-1.56 0,0 0.179,0.936 0.714,1.516 0,0 -1.478,0.174 -2.681,-3.392 0,0 0.055,0.878 -0.261,1.965 0,0 -0.044,-1.247 -0.401,-2.54 C 0.045,0.847 0.045,0.401 0,0 Z"
           style="fill:none;stroke:#000000;stroke-width:0.28;stroke-linecap:butt;stroke-linejoin:miter;stroke-miterlimit:4;stroke-dasharray:none;stroke-opacity:1"
           id="path9182" />
      </g>
      <g
         id="g9184"
         transform="translate(457.9831,68.4074)">
        <path
           d="m 0,0 c 0,0 -7.595,1.115 -7.532,3.12 0.067,2.117 2.451,3.387 4.457,3.431 0,0 -0.089,2.808 0.535,4.323 0.624,1.515 2.273,2.496 3.075,2.585 0,0 1.053,-2.003 1.251,-3.376 0.129,0.788 0.536,2.811 1.423,3.733 0,0 1.381,-0.847 1.693,-1.248 0.312,-0.401 1.07,-3.878 1.337,-5.838 0,0 4.68,-0.134 4.947,-2.541 C 11.454,1.783 5.437,0.401 4.59,0.178 c 0,0 -0.579,-0.579 -0.579,-1.248 0,0 1.708,-2.447 1.649,-6.595 -0.045,-3.12 -0.516,-6.5 -0.516,-6.5 0,0 1.032,-1.818 0.952,-4.241 -0.075,-2.276 -0.555,-5.627 -2.375,-7.687 0,0 -1.079,-1.372 -2.021,-0.92 0,0 -3.639,2.286 -3.572,7.805 0,0 -0.067,1.27 0.691,3.498 0,0 0.401,1.36 0.379,2.429 -0.01,0.49 -0.446,8.958 1.292,11.097 0,0 0,1.783 -0.49,2.184"
           style="fill:#ffffff;fill-opacity:1;fill-rule:nonzero;stroke:none"
           id="path9186" />
      </g>
      <g
         id="g9188"
         transform="translate(457.9831,68.4074)">
        <path
           d="m 0,0 c 0,0 -7.595,1.115 -7.532,3.12 0.067,2.117 2.451,3.387 4.457,3.431 0,0 -0.089,2.808 0.535,4.323 0.624,1.515 2.273,2.496 3.075,2.585 0,0 1.053,-2.003 1.251,-3.376 0.129,0.788 0.536,2.811 1.423,3.733 0,0 1.381,-0.847 1.693,-1.248 0.312,-0.401 1.07,-3.878 1.337,-5.838 0,0 4.68,-0.134 4.947,-2.541 C 11.454,1.783 5.437,0.401 4.59,0.178 c 0,0 -0.579,-0.579 -0.579,-1.248 0,0 1.708,-2.447 1.649,-6.595 -0.045,-3.12 -0.516,-6.5 -0.516,-6.5 0,0 1.032,-1.818 0.952,-4.241 -0.075,-2.276 -0.555,-5.627 -2.375,-7.687 0,0 -1.079,-1.372 -2.021,-0.92 0,0 -3.639,2.286 -3.572,7.805 0,0 -0.067,1.27 0.691,3.498 0,0 0.401,1.36 0.379,2.429 -0.01,0.49 -0.446,8.958 1.292,11.097 0,0 0,1.783 -0.49,2.184 z"
           style="fill:none;stroke:#000000;stroke-width:0.28;stroke-linecap:butt;stroke-linejoin:miter;stroke-miterlimit:4;stroke-dasharray:none;stroke-opacity:1"
           id="path9190" />
      </g>
      <g
         id="g9192"
         transform="translate(461.4592,74.6913)">
        <path
           d="m 0,0 c 0,0 1.07,0.356 1.292,2.496 0.223,2.139 -0.935,2.941 -1.203,3.075 0,0 -0.77,-1.074 -0.891,-2.808 C -0.902,1.326 -0.802,0.089 0,0"
           style="fill:#ffffff;fill-opacity:1;fill-rule:nonzero;stroke:none"
           id="path9194" />
      </g>
      <g
         id="g9196"
         transform="translate(461.4592,74.6913)">
        <path
           d="m 0,0 c 0,0 1.07,0.356 1.292,2.496 0.223,2.139 -0.935,2.941 -1.203,3.075 0,0 -0.77,-1.074 -0.891,-2.808 C -0.902,1.326 -0.802,0.089 0,0 Z"
           style="fill:none;stroke:#000000;stroke-width:0.178;stroke-linecap:butt;stroke-linejoin:miter;stroke-miterlimit:4;stroke-dasharray:none;stroke-opacity:1"
           id="path9198" />
      </g>
      <g
         id="g9200"
         transform="translate(458.2059,74.4684)">
        <path
           d="m 0,0 c 0,0 0.847,0.267 0.535,2.719 -0.273,2.138 -1.293,2.584 -1.293,2.584 0,0 -1.29,-0.746 -0.802,-2.941 C -1.07,0.156 -0.357,-0.089 0,0"
           style="fill:#ffffff;fill-opacity:1;fill-rule:nonzero;stroke:none"
           id="path9202" />
      </g>
      <g
         id="g9204"
         transform="translate(458.2059,74.4684)">
        <path
           d="m 0,0 c 0,0 0.847,0.267 0.535,2.719 -0.272,2.138 -1.293,2.584 -1.293,2.584 0,0 -1.289,-0.746 -0.802,-2.941 C -1.07,0.156 -0.357,-0.089 0,0 Z"
           style="fill:none;stroke:#000000;stroke-width:0.178;stroke-linecap:butt;stroke-linejoin:miter;stroke-miterlimit:4;stroke-dasharray:none;stroke-opacity:1"
           id="path9206" />
      </g>
      <g
         id="g9208"
         transform="translate(461.4815,74.7135)">
        <path
           d="M 0,0 C 0,0 0.199,0.089 0.29,0.624 0.39,1.214 0.212,1.437 0.067,1.448 -0.046,1.457 -0.29,1.292 -0.356,0.847 -0.406,0.516 -0.379,0.178 -0.223,0.022 -0.223,0.022 -0.134,0 0,0"
           style="fill:#000000;fill-opacity:1;fill-rule:nonzero;stroke:none"
           id="path9210" />
      </g>
      <g
         id="g9212"
         transform="translate(461.4815,74.7135)">
        <path
           d="M 0,0 C 0,0 0.199,0.089 0.29,0.624 0.39,1.214 0.212,1.437 0.067,1.448 -0.046,1.457 -0.29,1.292 -0.356,0.847 -0.406,0.516 -0.379,0.178 -0.223,0.022 -0.223,0.022 -0.134,0 0,0 Z"
           style="fill:none;stroke:#000000;stroke-width:0.053;stroke-linecap:butt;stroke-linejoin:miter;stroke-miterlimit:4;stroke-dasharray:none;stroke-opacity:1"
           id="path9214" />
      </g>
      <g
         id="g9216"
         transform="translate(458.4733,74.7581)">
        <path
           d="m 0,0 c 0,0 0.089,0.301 0.022,0.68 -0.05,0.286 -0.156,0.679 -0.423,0.657 -0.268,-0.022 -0.303,-0.462 -0.245,-0.824 0.067,-0.424 0.245,-0.78 0.423,-0.78 0,0 0.134,0.111 0.223,0.267"
           style="fill:#000000;fill-opacity:1;fill-rule:nonzero;stroke:none"
           id="path9218" />
      </g>
      <g
         id="g9220"
         transform="translate(458.4733,74.7581)">
        <path
           d="m 0,0 c 0,0 0.089,0.301 0.022,0.68 -0.05,0.286 -0.156,0.679 -0.423,0.657 -0.267,-0.022 -0.302,-0.462 -0.245,-0.824 0.067,-0.424 0.245,-0.78 0.423,-0.78 0,0 0.134,0.111 0.223,0.267 z"
           style="fill:none;stroke:#000000;stroke-width:0.053;stroke-linecap:butt;stroke-linejoin:miter;stroke-miterlimit:4;stroke-dasharray:none;stroke-opacity:1"
           id="path9222" />
      </g>
      <g
         id="g9224"
         transform="translate(458.451,73.7776)">
        <path
           d="m 0,0 c 0,0 -0.882,-0.429 -0.49,-1.404 0.401,-0.998 1.649,-1.315 2.295,-1.315 0.512,0 1.693,0.223 2.139,1.204 C 4.39,-0.535 3.922,0.022 3.521,0.178 3.12,0.334 1.337,0.691 0,0"
           style="fill:#000000;fill-opacity:1;fill-rule:nonzero;stroke:none"
           id="path9226" />
      </g>
      <g
         id="g9228"
         transform="translate(458.451,73.7776)">
        <path
           d="m 0,0 c 0,0 -0.882,-0.429 -0.49,-1.404 0.401,-0.998 1.649,-1.315 2.295,-1.315 0.512,0 1.693,0.223 2.139,1.204 C 4.39,-0.535 3.922,0.022 3.521,0.178 3.12,0.334 1.337,0.691 0,0 Z"
           style="fill:none;stroke:#000000;stroke-width:0.178;stroke-linecap:butt;stroke-linejoin:miter;stroke-miterlimit:4;stroke-dasharray:none;stroke-opacity:1"
           id="path9230" />
      </g>
      <g
         id="g9232"
         transform="translate(461.5261,73.4879)">
        <path
           d="m 0,0 c 0,0 0.022,0.312 -1.315,0.29 -1.315,-0.022 -1.381,-0.379 -1.381,-0.468 0,-0.089 0.311,-0.327 1.404,-0.29 C -0.301,-0.435 0.022,-0.312 0,0"
           style="fill:#ffffff;fill-opacity:1;fill-rule:nonzero;stroke:none"
           id="path9234" />
      </g>
      <g
         id="g9236"
         transform="translate(457.9831,80.9082)">
        <path
           d="m 0,0 c 0,0 -1.114,0.312 -1.716,-1.738 0,0 0.669,1.471 1.716,1.738"
           style="fill:#000000;fill-opacity:1;fill-rule:nonzero;stroke:none"
           id="path9238" />
      </g>
      <g
         id="g9240"
         transform="translate(462.4619,80.3289)">
        <path
           d="m 0,0 c 0,0 -0.847,1.671 -1.493,0.379 0,0 0.579,0.824 1.493,-0.379"
           style="fill:#000000;fill-opacity:1;fill-rule:nonzero;stroke:none"
           id="path9242" />
      </g>
      <g
         id="g9244"
         transform="translate(457.3027,79.7757)">
        <path
           d="m 0,0 c 0.122,0.101 0.276,0.179 0.469,0.208 0,0 -0.268,-0.279 -0.312,-0.312 0,0 -0.263,0.017 -0.157,0.104"
           style="fill:#000000;fill-opacity:1;fill-rule:nonzero;stroke:none"
           id="path9246" />
      </g>
      <g
         id="g9248"
         transform="translate(461.5818,80.34)">
        <path
           d="m 0,0 c 0,0 -0.1,0.078 -0.267,0.089 0,0 0.156,-0.189 0.278,-0.267 L 0,0 Z"
           style="fill:#000000;fill-opacity:1;fill-rule:nonzero;stroke:none"
           id="path9250" />
      </g>
      <g
         id="g9252"
         transform="translate(460.0554,74.8917)">
        <path
           d="M 0,0 C 0,0 -0.802,0.134 -1.092,-0.089 -1.092,-0.089 -0.245,0 0,0"
           style="fill:#000000;fill-opacity:1;fill-rule:nonzero;stroke:none"
           id="path9254" />
      </g>
      <g
         id="g9256"
         transform="translate(461.1473,74.4684)">
        <path
           d="m 0,0 c 0,0 -1.671,0.423 -2.607,-0.201 0,0 0.78,0.357 2.607,0.201"
           style="fill:#000000;fill-opacity:1;fill-rule:nonzero;stroke:none"
           id="path9258" />
      </g>
      <g
         id="g9260"
         transform="translate(456.5351,73.3677)">
        <path
           d="m 0,0 c 0.11,-0.016 0.201,0.031 0.3,0.009 0,0 -0.161,0.099 -0.414,0.138 -0.276,0.044 -0.671,0.013 -1.073,-0.191 -0.488,-0.247 -1.844,-1.017 -2.423,-0.883 0,0 0.724,-0.267 2.183,0.579 0,0 0.778,0.445 1.427,0.348"
           style="fill:#000000;fill-opacity:1;fill-rule:nonzero;stroke:none"
           id="path9262" />
      </g>
      <g
         id="g9264"
         transform="translate(467.2751,72.7526)">
        <path
           d="m 0,0 c 0,0 -0.357,-0.067 -1.125,0.167 -0.317,0.097 -2.262,0.858 -2.864,0.457 0,0 0.702,0.045 1.27,-0.111 C -2.145,0.354 -0.334,-0.356 0,0"
           style="fill:#000000;fill-opacity:1;fill-rule:nonzero;stroke:none"
           id="path9266" />
      </g>
      <g
         id="g9268"
         transform="translate(455.6886,71.9616)">
        <path
           d="m 0,0 c 0.006,-0.087 0.575,-2.336 4.482,-2.173 3.489,0.146 4.275,2.077 4.275,2.741 0,0.582 -0.676,0.935 -0.705,0.95 L 7.881,1.427 C 7.888,1.423 8.578,1.042 8.578,0.568 8.578,0.544 8.402,-1.829 4.474,-1.994 0.687,-2.154 0.18,0 0.177,0.022 0.166,0.11 0.091,0.894 0.83,1.409 L 0.728,1.555 C -0.046,0.98 -0.018,0.246 0,0"
           style="fill:#000000;fill-opacity:1;fill-rule:nonzero;stroke:none"
           id="path9270" />
      </g>
      <g
         id="g9272"
         transform="translate(457.8212,68.5713)">
        <path
           d="m 0,0 c 0,0 0.678,-0.114 1.499,-0.119 0,0 -0.506,-0.301 -1.403,-0.148 L 0,0 Z"
           style="fill:#000000;fill-opacity:1;fill-rule:nonzero;stroke:none"
           id="path9274" />
      </g>
      <g
         id="g9276"
         transform="translate(461.8812,67.5957)">
        <path
           d="m 0,0 c -0.02,-0.101 -0.101,-0.643 0.001,-1.094 0,0 0.078,0.223 0.201,0.858 0,0 -0.182,0.337 -0.202,0.236"
           style="fill:#000000;fill-opacity:1;fill-rule:nonzero;stroke:none"
           id="path9278" />
      </g>
      <g
         id="g9280"
         transform="translate(460.9021,63.4383)">
        <path
           d="M 0,0 C 0,0 0.379,-1.716 0.111,-4.234 0.111,-4.234 0.909,-1.74 0,0"
           style="fill:#000000;fill-opacity:1;fill-rule:nonzero;stroke:none"
           id="path9282" />
      </g>
      <g
         id="g9284"
         transform="translate(464.1999,60.1166)">
        <path
           d="m 0,0 c 0.027,0.277 0.102,1.112 0.111,1.662 0,0 0.152,-0.639 0.077,-1.758 C 0.107,-0.059 0.048,-0.028 0,0"
           style="fill:#ffffff;fill-opacity:1;fill-rule:nonzero;stroke:none"
           id="path9286" />
      </g>
      <g
         id="g9288"
         transform="translate(463.0066,54.3651)">
        <path
           d="m 0,0 c 0,0 -0.196,-1.257 -0.196,-1.636 0,0 0.24,0.651 0.408,1.575 L 0,0 Z"
           style="fill:#000000;fill-opacity:1;fill-rule:nonzero;stroke:none"
           id="path9290" />
      </g>
      <g
         id="g9292"
         transform="translate(455.8109,60.0619)">
        <path
           d="m 0,0 c 0,0 0.327,0.184 0.635,0.468 0,0 -0.297,-0.533 -0.62,-0.711 L 0,0 Z"
           style="fill:#ffffff;fill-opacity:1;fill-rule:nonzero;stroke:none"
           id="path9294" />
      </g>
      <g
         id="g9296"
         transform="translate(446.9418,58.0235)">
        <path
           d="m 0,0 c 0,0 0.178,0.446 0.256,0.791 0,0 0.112,-0.501 -0.056,-0.836 L 0,0 Z"
           style="fill:#ffffff;fill-opacity:1;fill-rule:nonzero;stroke:none"
           id="path9298" />
      </g>
      <g
         id="g9300"
         transform="translate(446.0839,59.405)">
        <path
           d="m 0,0 c 0,0 -1.148,-0.446 -1.861,-1.749 0,0 0.963,1.038 1.861,1.749"
           style="fill:#ffffff;fill-opacity:1;fill-rule:nonzero;stroke:none"
           id="path9302" />
      </g>
      <g
         id="g9304"
         transform="translate(440.4349,55.7329)">
        <path
           d="m 0,0 c 0,0 1.573,1.017 3.055,1.441 0,0 -0.932,0.009 -2.915,-1.049 L 0,0 Z"
           style="fill:#ffffff;fill-opacity:1;fill-rule:nonzero;stroke:none"
           id="path9306" />
      </g>
      <g
         id="g9308"
         transform="translate(442.0799,55.0044)">
        <path
           d="m 0,0 c -0.131,0.018 -0.43,0.066 -0.464,0.211 -0.033,0.145 -0.022,0.702 2.618,1.594 0,0 -2.898,-0.624 -2.907,-1.594 0,0 0,-0.299 0.378,-0.378 0,0 0.506,0.149 0.375,0.167"
           style="fill:#ffffff;fill-opacity:1;fill-rule:nonzero;stroke:none"
           id="path9310" />
      </g>
      <g
         id="g9312"
         transform="translate(475.6596,56.9137)">
        <path
           d="m 0,0 c 0.154,0.176 0.24,0.486 0.284,0.787 0,0 -0.535,-0.814 -1.092,-1.192 0,0 0.494,0.047 0.808,0.405"
           style="fill:#ffffff;fill-opacity:1;fill-rule:nonzero;stroke:none"
           id="path9314" />
      </g>
      <g
         id="g9316"
         transform="translate(474.74,57.4886)">
        <path
           d="m 0,0 c 0,0 -0.368,1.983 -1.604,1.694 0,0 0.891,0 1.604,-1.694"
           style="fill:#ffffff;fill-opacity:1;fill-rule:nonzero;stroke:none"
           id="path9318" />
      </g>
      <g
         id="g9320"
         transform="translate(467.9908,33.1688)">
        <path
           d="m 0,0 c 0,0 -0.822,0.839 -2.131,1.021 0,0 1.006,0.114 2.144,-0.846 C 0.02,0.078 0,0 0,0"
           style="fill:#ffffff;fill-opacity:1;fill-rule:nonzero;stroke:none"
           id="path9322" />
      </g>
      <g
         id="g9324"
         transform="translate(466.6849,31.7907)">
        <path
           d="m 0,0 c 0.123,0.034 0.18,0.183 0.158,0.339 -0.036,0.249 -0.156,0.724 -1.092,1.137 0,0 1.27,-0.257 1.27,-1.237 0,0 0,-0.229 -0.163,-0.344 C 0.112,-0.083 0.031,-0.034 0,0"
           style="fill:#ffffff;fill-opacity:1;fill-rule:nonzero;stroke:none"
           id="path9326" />
      </g>
      <g
         id="g9328"
         transform="translate(451.2657,34.1228)">
        <path
           d="m 0,0 c 0.322,0.127 1.12,0.416 1.842,0.519 0,0 -0.618,0.061 -1.799,-0.289 C 0.029,0.157 -0.008,0.068 0,0"
           style="fill:#ffffff;fill-opacity:1;fill-rule:nonzero;stroke:none"
           id="path9330" />
      </g>
      <g
         id="g9332"
         transform="translate(455.0824,79.3849)">
        <path
           d="M 0,0 C 0,0 0.158,0.505 0.283,0.858 L -0.164,0.115 0,0 Z"
           style="fill:#ffffff;fill-opacity:1;fill-rule:nonzero;stroke:none"
           id="path9334" />
      </g>
      <g
         id="g9336"
         transform="translate(454.3558,66.2048)">
        <path
           d="m 0,0 c -0.781,-0.66 -5.865,-5.106 -8.406,-5.596 0,0 -0.178,0.311 -0.624,0.623 -0.314,0.22 -0.416,1.127 -0.497,1.398 0,0 -0.171,0.296 -0.572,0.029 -0.401,-0.268 -0.591,-1.204 -0.323,-1.917 0.267,-0.713 0.71,-0.941 0.234,-1.604 -0.643,-0.894 -3.387,-2.318 -3.61,-3.164 0,0 -0.936,-0.58 -0.892,-0.936 0.045,-0.357 0.936,-0.535 2.184,-0.134 0,0 1.053,-0.228 2.229,0.267 1.197,0.505 2.406,1.872 3.03,2.942 0,0 2.246,0.089 4.508,0.534"
           style="fill:none;stroke:#ffffff;stroke-width:0.28;stroke-linecap:butt;stroke-linejoin:miter;stroke-miterlimit:4;stroke-dasharray:none;stroke-opacity:1"
           id="path9338" />
      </g>
      <g
         id="g9340"
         transform="translate(452.7682,42.3979)">
        <path
           d="M 0,0 C 0.1,0.015 0.17,0.028 0.258,0.057 0.076,0.656 -0.501,3.217 1.165,7.883 L 0.975,7.995 C 0.975,7.995 -0.998,3.007 0,0"
           style="fill:#ffffff;fill-opacity:1;fill-rule:nonzero;stroke:none"
           id="path9342" />
      </g>
      <g
         id="g9344"
         transform="translate(459.825,38.6826)">
        <path
           d="m 0,0 c 0,-0.41 0.006,-0.865 0.02,-1.37 0,-10e-4 -0.016,-1.402 -0.016,-1.402 l 0.005,-1.445 c 0,-0.007 0.01,-0.1 0.01,-0.226 0,-0.171 0.019,-0.465 -0.062,-0.625 0,0 0.102,-0.003 0.279,-0.027 0.118,0.357 0.054,0.874 0.052,0.896 0.001,-0.013 -0.004,1.425 -0.004,1.425 0,10e-4 0.016,1.405 0.016,1.405 -0.108,3.854 0.256,4.757 0.259,4.766 L 0.303,3.51 C 0.289,3.479 0,2.797 0,0"
           style="fill:#ffffff;fill-opacity:1;fill-rule:nonzero;stroke:none"
           id="path9346" />
      </g>
      <g
         id="g9348"
         transform="translate(461.245,35.378)">
        <path
           d="m 0,0 c -0.062,-0.121 -0.206,-0.41 -0.344,-0.77 0,0 0.194,0.245 0.516,0.692 C 0.098,-0.046 0.061,-0.028 0,0"
           style="fill:#ffffff;fill-opacity:1;fill-rule:nonzero;stroke:none"
           id="path9350" />
      </g>
      <g
         id="g9352"
         transform="translate(457.6024,35.4044)">
        <path
           d="m 0,0 c 0.128,0.049 0.326,0.142 0.488,0.282 0,0 -0.245,-0.039 -0.554,-0.081 C -0.048,0.147 -0.02,0.068 0,0"
           style="fill:#ffffff;fill-opacity:1;fill-rule:nonzero;stroke:none"
           id="path9354" />
      </g>
      <g
         id="g9356"
         transform="translate(449.182,79.4899)">
        <path
           d="m 0,0 c 0,0 1.213,-1.441 1.511,-2.223 0,0 -0.545,0.722 -1.963,1.503 0,0 -0.082,0.58 0.452,0.72"
           style="fill:#000000;fill-opacity:1;fill-rule:nonzero;stroke:none"
           id="path9358" />
      </g>
      <g
         id="g9360"
         transform="translate(444.2937,73.9482)">
        <path
           d="m 0,0 c 0,0 0.735,-1.068 1.492,-2.634 0,0 0.197,0.788 -1.151,3.255 C 0.341,0.621 -0.131,0.438 0,0"
           style="fill:#000000;fill-opacity:1;fill-rule:nonzero;stroke:none"
           id="path9362" />
      </g>
      <g
         id="g9364"
         transform="translate(442.3162,51.5482)">
        <path
           d="m 0,0 c 0,0 1.371,-1.732 2.345,-2.083 0,0 -1.336,1.645 -1.89,2.94 C 0.455,0.857 -0.35,0.788 0,0"
           style="fill:#000000;fill-opacity:1;fill-rule:nonzero;stroke:none"
           id="path9366" />
      </g>
      <g
         id="g9368"
         transform="translate(447.5662,53.0882)">
        <path
           d="m 0,0 c 0,0 -0.376,1.269 0,2.205 0,0 0.144,-1.759 0.84,-2.783 0,0 -0.402,-0.052 -0.84,0.578"
           style="fill:#000000;fill-opacity:1;fill-rule:nonzero;stroke:none"
           id="path9370" />
      </g>
      <g
         id="g9372"
         transform="translate(456.0712,84.7369)">
        <path
           d="m 0,0 c 0,0 0.026,0.438 0.061,1.129 0,0 0.28,-0.328 0.311,-0.993 L 0,0 Z"
           style="fill:#000000;fill-opacity:1;fill-rule:nonzero;stroke:none"
           id="path9374" />
      </g>
      <g
         id="g9376"
         transform="translate(456.6662,83.2844)">
        <path
           d="m 0,0 c 0,0 -0.193,-0.595 -0.367,-1.054 0,0 0.061,0.692 0.074,1.198 0,0 0.246,-0.086 0.293,-0.144"
           style="fill:#000000;fill-opacity:1;fill-rule:nonzero;stroke:none"
           id="path9378" />
      </g>
      <g
         id="g9380"
         transform="translate(462.1204,86.8165)">
        <path
           d="m 0,0 c 0,0 0.811,0.058 1.149,-0.117 0,0 -0.571,-0.151 -1.102,-0.303 0,0 -0.082,0.257 -0.047,0.42"
           style="fill:#000000;fill-opacity:1;fill-rule:nonzero;stroke:none"
           id="path9382" />
      </g>
      <g
         id="g9384"
         transform="translate(461.6829,86.064)">
        <path
           d="m 0,0 c 0,0 -0.548,-0.012 -1.05,-0.047 0,0 0.227,0.216 0.787,0.385 0,0 0.403,-0.186 0.263,-0.338"
           style="fill:#000000;fill-opacity:1;fill-rule:nonzero;stroke:none"
           id="path9386" />
      </g>
      <g
         id="g9388"
         transform="translate(464.3268,84.6057)">
        <path
           d="m 0,0 c 0,0 -0.319,0.315 -0.748,0.49 0,0 0.315,0.074 0.691,-0.048 0,0 0.232,-0.328 0.057,-0.442"
           style="fill:#000000;fill-opacity:1;fill-rule:nonzero;stroke:none"
           id="path9390" />
      </g>
      <g
         id="g9392"
         transform="translate(464.8256,83.6432)">
        <path
           d="m 0,0 c 0,0 0.241,-0.175 0.486,-0.402 0,0 0.016,0.348 -0.194,0.672 C 0.292,0.27 0.017,0.096 0,0"
           style="fill:#000000;fill-opacity:1;fill-rule:nonzero;stroke:none"
           id="path9394" />
      </g>
      <g
         id="g9396"
         transform="translate(459.6004,78.6761)">
        <path
           d="m 0,0 c 0.019,-0.145 0.061,-0.411 0.146,-0.98 0.134,0.4 0.14,0.598 0.181,0.919"
           style="fill:#000000;fill-opacity:1;fill-rule:nonzero;stroke:none"
           id="path9398" />
      </g>
    </g>
  </g>
</svg>
