<svg xmlns="http://www.w3.org/2000/svg" width="530" height="336" viewBox="0 0 530 336">
    <g fill="none">
        <g fill="#F3F9FF">
            <path d="M478.624 10.375c-10.504 0-19.934 6.003-24.698 14.91-1.596-.428-3.26-.65-4.961-.65-5.402 0-10.38 2.302-13.89 6.046-3.005-1.573-6.38-2.43-9.855-2.43-10.318 0-18.949 7.383-20.893 17.15-7.447 1.006-13.207 7.41-13.207 15.138 0 8.422 6.845 15.274 15.258 15.274h94.555c9.949 0 18.043-8.102 18.043-18.06 0-8-5.223-14.803-12.434-17.17.056-.72.084-1.447.084-2.176 0-15.456-12.562-28.032-28.002-28.032zM120.554 22.233c-.662-1.602-2.362-2.513-4.06-2.176l-5.366 1.063c-1.265.25-2.574-.19-3.428-1.156-.906-1.024-1.864-1.988-2.874-2.887-.962-.857-1.398-2.161-1.148-3.426l1.06-5.363c.336-1.7-.574-3.402-2.173-4.065L94.643.938c-1.6-.663-3.445-.105-4.408 1.336l-3.038 4.541c-.715 1.07-1.948 1.685-3.231 1.61-1.35-.078-2.708-.075-4.07.007-1.289.079-2.523-.535-3.242-1.608l-3.043-4.55c-.963-1.44-2.808-2-4.408-1.335l-7.922 3.285c-1.6.663-2.51 2.364-2.173 4.065l1.062 5.372c.25 1.266-.19 2.576-1.156 3.432-1.022.906-1.985 1.865-2.883 2.876-.857.963-2.159 1.4-3.422 1.15l-5.357-1.062c-1.698-.336-3.398.575-4.06 2.176l-3.282 7.93c-.662 1.602-.105 3.449 1.334 4.413l4.537 3.042c1.068.716 1.683 1.95 1.608 3.234-.078 1.35-.075 2.71.007 4.076.079 1.29-.534 2.525-1.607 3.244l-4.544 3.047c-1.439.965-1.997 2.811-1.334 4.413l3.281 7.93c.663 1.602 2.363 2.513 4.061 2.176l5.366-1.063c1.265-.25 2.573.19 3.428 1.157.906 1.023 1.864 1.987 2.873 2.887.962.856 1.399 2.16 1.149 3.426l-1.06 5.361c-.337 1.7.573 3.402 2.173 4.065l7.922 3.285c1.6.664 3.445.104 4.408-1.336l3.038-4.542c.715-1.07 1.948-1.684 3.231-1.61 1.35.079 2.708.076 4.071-.007 1.289-.078 2.523.535 3.241 1.609l3.044 4.55c.963 1.44 2.808 2 4.408 1.336l7.922-3.285c1.6-.663 2.51-2.366 2.173-4.066l-1.062-5.371c-.25-1.267.19-2.577 1.156-3.432 1.022-.907 1.985-1.867 2.883-2.877.856-.963 2.158-1.4 3.422-1.15l5.356 1.062c1.7.337 3.399-.574 4.061-2.175l3.282-7.931c.662-1.602.103-3.45-1.334-4.413l-4.537-3.041c-1.07-.717-1.683-1.95-1.608-3.236.078-1.35.075-2.71-.008-4.074-.078-1.29.535-2.526 1.607-3.245l4.545-3.046c1.438-.965 1.997-2.812 1.334-4.413l-3.283-7.93zM88.872 59.697c-9.268 3.843-19.892-.563-23.732-9.84-3.84-9.278.563-19.914 9.83-23.758 9.267-3.844 19.893.563 23.732 9.84 3.84 9.278-.562 19.915-9.83 23.758zM92.894 308.188C27.03 308.188.15 264.662.15 216.216c0-48.445 26.428-78.272 60.501-78.272 34.073 0 24.394 28.97 64.26 28.97 39.866 0 61.456-68.444 118.546-68.444s28.216 61.717 78.733 61.717c50.516 0 111.966-43.74 121.715 6.113 12.71 64.992 188.676 143.983-3.34 143.983-75.983 0-347.671-2.095-347.671-2.095z"/>
        </g>
        <path fill="#DAE7FF" d="M191.427 308.126h303.78c1.675 0 3.032 1.358 3.032 3.034v.32c0 1.677-1.357 3.035-3.032 3.035H20.761c-1.675 0-3.032-1.358-3.032-3.035 0-1.674 1.354-3.031 3.026-3.035l170.672-.32z"/>
        <g>
            <path fill="#D2D2FF" d="M48.933 111.6c4.518-10.581 11.258-25.573-2.517-34.425-13.776-8.853-1.2-14.095-.752-26.926.447-12.831-13.615-16.13-13.194-22.213.42-6.084 1.119-16.843-.179-21.433-2.172-7.682-18.426-11.17-20.085 10.46-1.042 13.591-2.443 21.798-9.684 31.493-7.24 9.695 8.71 19.946 8.415 27.75-.296 7.805-8.155 6.65-7.295 23.19.859 16.54 11.719 29.049 22.045 28.311 7.013-.5 19.12-6.548 23.246-16.207z" transform="translate(412.615 163.946)"/>
            <path fill="#9A98FF" d="M44.545 90.913c.01-.249-.185-.458-.434-.467-.238.02-.456.187-.465.434-.259 7.413-10.291 12.812-13.475 14.341.355-3.804.484-7.404.235-10.509-.542-6.79-2.209-13.98-3.82-20.932-2.048-8.837-3.983-17.226-3.432-23.889 1.615-.413 7.806-2.365 9.775-8.451.077-.237-.053-.491-.289-.568-.236-.077-.49.054-.566.29-1.696 5.237-6.969 7.217-8.824 7.762.046-.368.093-.735.156-1.091 1.446-8.208.484-18.738-.091-25.028-.266-2.908-.476-5.202-.322-5.81.062-.242-.084-.487-.324-.547-.238-.064-.486.084-.547.325-.184.723-.024 2.594.297 6.114.57 6.246 1.526 16.7.102 24.79-.093.526-.161 1.068-.218 1.618-.062.095-.089.214-.065.335.006.028.02.05.03.075-.273 3.135-.012 6.62.56 10.344-.005.002-.01.001-.013.003-4.898 2.012-7.897-3.766-8.022-4.012-.112-.223-.384-.312-.604-.2-.223.113-.31.385-.2.606.03.058 2.547 4.933 6.796 4.933.684 0 1.416-.134 2.187-.428.677 4.127 1.692 8.522 2.738 13.035 1.563 6.746 3.17 13.714 3.749 20.289-1.868-.118-8.596-.92-10.373-6.984-.069-.238-.32-.375-.558-.306-.24.07-.376.32-.306.559 1.982 6.757 9.456 7.55 11.308 7.641.214 3.104.07 6.682-.302 10.47l-.017.007c-.228.095-.337.358-.242.588.038.09.102.158.178.206-.947 8.962-3.087 18.936-4.678 26.343-1.425 6.638-2.159 10.153-1.925 11.268.045.213.232.358.44.358.031 0 .062-.003.094-.01.243-.051.399-.29.347-.533-.206-.98.781-5.574 1.924-10.894 1.613-7.504 3.787-17.634 4.725-26.723 2.638-1.193 14.176-6.896 14.471-15.352z" transform="translate(412.615 163.946)"/>
        </g>
        <g>
            <g>
                <path fill="#183168" d="M165.188.66H37.252c-14.13 0-25.587 11.468-25.587 25.615v256.147c0 14.146 11.456 25.614 25.587 25.614h127.935c14.131 0 25.587-11.468 25.587-25.614V26.276c0-14.148-11.455-25.616-25.586-25.616z" transform="translate(140.465) translate(68)"/>
                <path fill="#224380" d="M153.94.66H26.004C11.874.66.418 12.128.418 26.275v256.147c0 14.146 11.455 25.614 25.586 25.614H153.94c14.131 0 25.587-11.468 25.587-25.614V26.276C179.526 12.128 168.071.66 153.94.66z" transform="translate(140.465) translate(68)"/>
                <path fill="#F3F9FF" d="M166.733 32.678V276.02c0 10.63-8.572 19.211-19.19 19.211H33.424c-10.619 0-19.19-8.58-19.19-19.211V32.679c0-10.63 8.571-19.212 19.19-19.212h8.572c5.245 0 9.595 4.355 9.595 9.605 0 5.251 4.35 9.606 9.595 9.606h57.57c5.246 0 9.596-4.355 9.596-9.606 0-5.25 4.35-9.605 9.595-9.605h9.594c10.62 0 19.191 8.581 19.191 19.211z" transform="translate(140.465) translate(68)"/>
            </g>
            <path fill="#4A90E2" d="M214.695 92.627h-115c-2.761 0-5-1.613-5-3.603V63.8c0-1.99 2.239-3.603 5-3.603h115c2.762 0 5 1.613 5 3.603v25.223c0 1.99-2.238 3.603-5 3.603z" transform="translate(140.465)"/>
            <path fill="#D1E7FF" d="M214.695 148.607h-115c-2.761 0-5-1.614-5-3.604v-25.222c0-1.99 2.239-3.603 5-3.603h115c2.762 0 5 1.613 5 3.603v25.222c0 1.99-2.238 3.604-5 3.604z" transform="translate(140.465)"/>
            <path fill="#F3F9FF" d="M206.386 72.453h-98.382c-1.274 0-2.309-.748-2.309-1.67 0-.923 1.034-1.67 2.31-1.67h98.381c1.274 0 2.31.747 2.31 1.67 0 .922-1.036 1.67-2.31 1.67zM206.386 83.713h-98.382c-1.274 0-2.309-.748-2.309-1.67 0-.923 1.034-1.67 2.31-1.67h98.381c1.274 0 2.31.747 2.31 1.67 0 .922-1.036 1.67-2.31 1.67z" transform="translate(140.465)"/>
            <path fill="#4A90E2" d="M88.848 241.975l-82.583 5.781c-1.983.139-3.702-1.357-3.841-3.343l-1.757-25.16c-.139-1.986 1.356-3.708 3.339-3.846l82.583-5.782c1.983-.138 3.702 1.358 3.841 3.343l1.757 25.161c.139 1.985-1.356 3.707-3.339 3.846z" transform="translate(140.465)"/>
        </g>
        <g>
            <g>
                <path fill="#B7EAE0" d="M4.541 79.954c-3.22-7.542-8.023-18.227 1.795-24.537 9.818-6.309.855-10.045.536-19.19-.319-9.145 9.703-11.495 9.403-15.832-.3-4.336-.797-12.004.128-15.276 1.548-5.475 13.133-7.961 14.315 7.455.744 9.688 1.742 15.536 6.903 22.447 5.161 6.91-6.207 14.215-5.997 19.779.21 5.563 5.812 4.739 5.199 16.527-.613 11.79-8.353 20.705-15.713 20.18-4.999-.36-13.629-4.67-16.569-11.553z" transform="translate(41.097 165.748) translate(0 38.735)"/>
                <path fill="#10BB99" d="M29.363 40.096c-.221-.111-.492-.022-.604.199-.087.17-2.131 4.116-5.466 2.827.395-2.612.573-5.059.384-7.266.005-.016.015-.028.017-.045.021-.102-.001-.201-.046-.288-.04-.39-.09-.776-.155-1.152-1.013-5.749-.332-13.19.074-17.634.237-2.593.344-3.864.207-4.401-.06-.243-.31-.39-.546-.326-.24.06-.387.307-.325.547.105.412-.052 2.12-.232 4.097-.41 4.49-1.097 12.006-.064 17.874.034.187.056.38.082.573-1.44-.452-4.87-1.871-6.009-5.39-.075-.237-.328-.366-.567-.29-.236.077-.365.33-.289.568 1.389 4.292 5.676 5.74 6.97 6.086.366 4.713-1.004 10.647-2.452 16.897-1.149 4.96-2.337 10.088-2.725 14.937-.17 2.124-.092 4.618.138 7.28-2.453-1.206-9.14-4.947-9.316-10.005-.008-.248-.228-.42-.466-.434-.248.009-.442.217-.433.466.21 6.02 8.272 10.087 10.306 11.018.664 6.685 2.218 14.276 3.367 19.896.818 3.996 1.524 7.447 1.382 8.123-.052.244.104.483.347.534.032.007.062.01.094.01.208 0 .395-.145.44-.358.172-.82-.355-3.474-1.38-8.489-1.135-5.545-2.663-13.021-3.333-19.604.049-.043.1-.088.126-.152.088-.21-.002-.443-.192-.555-.247-2.65-.341-5.13-.204-7.259 1.526-.097 6.667-.778 8.061-5.533.07-.238-.067-.489-.305-.558-.239-.069-.488.066-.559.305-1.22 4.164-5.64 4.797-7.126 4.887.422-4.636 1.554-9.548 2.656-14.305.732-3.162 1.445-6.244 1.929-9.145.502.173.985.256 1.446.256 2.452 0 4.262-2.182 4.968-3.583.11-.225.022-.497-.2-.608z" transform="translate(41.097 165.748) translate(0 38.735)"/>
            </g>
            <g>
                <path fill="#10BB99" d="M48.926 111.096c4.518-10.58 11.257-25.573-2.517-34.425-13.776-8.853-1.2-14.095-.753-26.926.448-12.83-13.614-16.129-13.193-22.213.42-6.084 1.119-16.842-.179-21.433C30.112-1.583 13.857-5.07 12.2 16.56c-1.042 13.592-2.443 21.798-9.684 31.494-7.24 9.695 8.71 19.945 8.414 27.75-.295 7.804-8.154 6.649-7.295 23.19.86 16.54 11.72 29.048 22.046 28.31 7.013-.5 19.12-6.547 23.246-16.207z" transform="translate(41.097 165.748) translate(42.292)"/>
                <path fill="#1EAF69" d="M44.54 90.41c.008-.25-.186-.458-.435-.467-.238.02-.456.186-.465.434-.26 7.413-10.291 12.811-13.475 14.34.355-3.803.483-7.403.235-10.508-.543-6.79-2.21-13.98-3.82-20.932-2.048-8.838-3.983-17.226-3.432-23.89 1.614-.412 7.806-2.365 9.775-8.45.076-.238-.053-.492-.289-.568-.237-.078-.49.054-.567.289-1.695 5.237-6.968 7.217-8.823 7.763.045-.368.093-.735.156-1.092 1.445-8.208.483-18.737-.092-25.028-.265-2.908-.475-5.202-.32-5.81.06-.241-.086-.486-.326-.547-.237-.064-.486.084-.546.325-.184.724-.024 2.595.297 6.114.57 6.246 1.526 16.7.102 24.79-.093.526-.161 1.069-.218 1.618-.062.096-.09.215-.065.335.006.028.02.05.03.076-.273 3.135-.012 6.619.56 10.344-.005.002-.01 0-.013.003-4.899 2.011-7.897-3.767-8.022-4.013-.113-.222-.384-.311-.605-.199-.222.113-.31.384-.199.606.03.057 2.547 4.932 6.796 4.932.684 0 1.415-.134 2.186-.427.678 4.126 1.693 8.521 2.739 13.034 1.563 6.746 3.17 13.714 3.748 20.289-1.867-.118-8.595-.92-10.372-6.984-.07-.238-.32-.375-.559-.305-.24.07-.375.32-.305.558 1.982 6.757 9.456 7.55 11.307 7.642.215 3.104.072 6.682-.301 10.469l-.017.007c-.229.096-.338.359-.242.588.038.09.102.159.178.207-.948 8.962-3.087 18.935-4.678 26.343-1.426 6.638-2.159 10.153-1.925 11.268.045.212.231.358.44.358.03 0 .062-.003.094-.01.243-.052.398-.29.347-.534-.206-.979.781-5.574 1.924-10.893 1.612-7.505 3.786-17.634 4.725-26.723 2.637-1.194 14.176-6.897 14.471-15.353z" transform="translate(41.097 165.748) translate(42.292)"/>
            </g>
        </g>
        <g>
            <path fill="#AF6E51" d="M88.51 121.393c-.258 1.7-.93 11.617-.93 11.617l-7.902-1.047v-10.918l8.831.348z" transform="translate(83.389 193.673)"/>
            <path fill="#03193F" d="M77.22 131.49s-2.468 6.973-1.21 8.985c1.257 2.012 23.949.563 25.655.418 7.784-.661 9.644-7.181 1.48-6.416-8.162.766-10.06-5.543-14.7-5.3-2.937.78-5.912 3.648-7.798 3.175l-3.426-.862z" transform="translate(83.389 193.673)"/>
            <path fill="#AF6E51" d="M28.795 136.848L19.973 135.749 25.088 129.172 31.223 129.172z" transform="translate(83.389 193.673)"/>
            <path fill="#0B224E" d="M48.072 87.062s25.827-10.381 32.303-7.678c9.391 3.92 10.612 43.225 8.753 44.559-1.859 1.333-6.722 1.38-9.45-.522-2.73-1.902-4.768-15.775-4.768-25.008-5.11 4.54-20.438 14.24-20.438 14.24s-16.393-10.702-6.4-25.591z" transform="translate(83.389 193.673)"/>
            <path fill="#102B5E" d="M14.522 110.01c0 6.943 5.892 10.255 9.59 12.71 3.597 2.386 6.744 3.989 5.445 5.443-2.633 2.945-2.013 9.306-2.013 9.306s33.618 4.807 47.562 3.722c13.944-1.086 12.55-12.253 5.733-16.285-6.816-4.034-30.52-22.335-30.52-22.335-11.002-3.102-35.797-6.756-35.797 7.439z" transform="translate(83.389 193.673)"/>
            <g>
                <g>
                    <path fill="#AF6E51" d="M7.506.633c-13.055 2.373-4.461 14.664-4.46 20.222 0 5.56-2.305 14.16-2.305 14.16l13.448 1.003s.237-4.537-.032-6.866c-.269-2.33 1.37-3.576 4.256-3.635 2.886-.058 2.621-5.67 2.973-6.73.576-1.736 3.483-.793 2.831-2.782-.65-1.988-2.883-2.553-3.657-7.874S13.703-.493 7.506.633z" transform="translate(83.389 193.673) translate(8.998) translate(23.396 8.107)"/>
                    <path fill="#6D3A23" d="M17.675 25.561c-1.371.134-2.395.591-2.983 1.35l-1.662-2.737c1.583.825 3.77 1.406 4.645 1.387z" transform="translate(83.389 193.673) translate(8.998) translate(23.396 8.107)"/>
                </g>
                <path fill="#0B224E" d="M25.202 8.184s-.84-7.211-8.78-7.362C5.875.622 6.196 15.678 6.048 23.52c-.284 15-7.555 15.267-5 18.299 1.81 2.148 15.917-7.507 17.214-18.145 1.298-10.638.425-15.613 5.944-13.004 2.214 1.046.997-2.485.997-2.485z" transform="translate(83.389 193.673) translate(8.998)"/>
                <path fill="#0B224E" d="M22.555 27.42c5.46 10.244 11.863-3.223 7.497-5.552-3.371-1.799-2.155-6.8 6.636-3.445 2.977 1.136 9.818-.733 9.96-8.25.052-2.777-4.444-4.353-13.155-4.445C19.21 5.577 18.201 19.25 22.555 27.42z" transform="translate(83.389 193.673) translate(8.998)"/>
                <path fill="#FBCA91" d="M27.557 3.908c2.238 1.118-3.164 10.425-6.308 9.137-3.144-1.289 3.39-10.597 6.308-9.137z" transform="translate(83.389 193.673) translate(8.998)"/>
            </g>
            <path fill="#F89623" d="M48.284 79.038c.09-.982 2.55-1.817 4.57-3.936 1.675-1.768 3.04-4.42 2.46-8.806-.09-.679 0 0 .433-1.227.123-.353.245-.72.368-1.105 2.534-7.783 5.093-22.595-13.856-26.678-9.606-2.078-19.786 1.054-19.584 23.88.368 41.686-15.281 36.891-10.826 44.42 2.248 3.797 13.44 6.138 19.97 2.88 6.525-3.257 25.417-1.628 24.86-4.419-.498-2.496-9.638-9.991-8.395-25.009z" transform="translate(83.389 193.673)"/>
            <path fill="#AF6E51" d="M67.05 57.903s4.336 2.45 10.109 5.314c7.149-2.498 19.793-11.208 21.963-14.775 1.47-2.418 4.286-6.316 5.751-5.507 1.231.68-1.293 3.03-.868 4.733.379 1.522 10.138-5.245 10.138-.467 0 4.295-1.29 7.823-8.264 7.823-2.128 0-4.312.214-8.252 4.444-2.184 2.345-12.072 14.686-23.692 13.91-11.62-.775-19.463-6.17-19.463-6.17s7.156-9.46 12.579-9.305z" transform="translate(83.389 193.673)"/>
            <path fill="#0B224E" d="M29.557 128.164h29.098s-24.847-2.257-34.543-5.444c3.597 2.387 6.744 3.99 5.445 5.444z" transform="translate(83.389 193.673)"/>
            <path fill="#03193F" d="M28.705 127.698s.455-5.29-1.441-6.547c-1.896-1.257-21.125 9.025-22.557 9.83-6.532 3.67-5.569 10.1 1.25 6.187 6.821-3.912 10.979.84 14.933-1.216 2.254-1.847 3.712-5.534 5.547-5.869 1.835-.336 2.268-2.385 2.268-2.385z" transform="translate(83.389 193.673)"/>
            <path fill="#D77C12" d="M55.748 65.069c-.434 1.227-.523.548-.434 1.227.58 4.387-.784 7.038-2.46 8.806-3.982-3.65-12.581-13.421-13.145-24.142 0 0 13.652 6.924 15.777 11.458.237.507.45 1.023.63 1.546-.123.385-.246.753-.368 1.105z" transform="translate(83.389 193.673)"/>
            <path fill="#F89623" d="M67.648 55.538c-3.435-1.838-9.033-7.939-12.2-11.576-1.726-1.984-3.952-3.484-6.456-4.284-18.773-6-11.097 9.757-7.405 15.98 3.935 6.633 15.368 18.492 16.478 13.49 1.112-5.003 14.583-10.934 9.583-13.61z" transform="translate(83.389 193.673)"/>
        </g>
        <g>
            <path fill="#F89623" d="M.388 30.063v2.604c0 4.089 2.627 5.533 4.877 5.533.338 0 .663-.038.975-.09.494-.092.95-.222 1.3-.34.442-.169.729-.312.768-.324.482-.235.663-.821.43-1.302-.222-.442-.742-.651-1.197-.482-.027.013-.065.026-.105.039-.012 0-.533.26-1.197.417-.312.078-.65.13-.975.13-1.092 0-2.926-.468-2.926-3.58v-2.605c0-3.11 1.834-3.58 2.926-3.58.325 0 .663.052.975.13.664.156 1.184.417 1.197.417.039.013.078.027.105.04.455.169.975-.04 1.196-.483.234-.482.053-1.067-.429-1.301-.039-.013-.325-.156-.767-.326-.351-.117-.807-.247-1.3-.338-.313-.053-.638-.091-.976-.091-2.25-.002-4.877 1.444-4.877 5.532z" transform="translate(178.77 265.737)"/>
            <path fill="#D77C12" d="M6.24 24.628v1.992c.663.156 1.184.417 1.197.417.039.012.078.026.104.038v-2.11c-.351-.115-.807-.246-1.3-.337zM6.24 36.125v1.992c.494-.091.95-.222 1.3-.34v-2.109c-.026.013-.064.026-.104.039-.012 0-.533.261-1.196.418z" transform="translate(178.77 265.737)"/>
            <path fill="#F89623" d="M7.541 21.6v17.577c0 1.432 1.171 2.604 2.602 2.604h13.006c1.43 0 2.601-1.172 2.601-2.604V21.599c0-.364-.286-.65-.65-.65H8.192c-.365 0-.65.286-.65.65z" transform="translate(178.77 265.737)"/>
            <path fill="#DAE7FF" d="M15.042.61s-1.95 1.852-1.883 3.366c.068 1.514 1.916 2.222 1.883 4.61-.034 2.39-2.488 2.356-2.488 4.375 0 2.018 4.168 3.399 4.168 5.182 0 0 1.143-.808 1.177-1.716.033-.908-1.546-1.548-1.546-2.894s5.143-1.75 5.143-4.846c0-3.095-6.354-3.971-6.454-8.076z" transform="translate(178.77 265.737)"/>
            <path fill="#D77C12" d="M19.35 41.781h3.798c1.43 0 2.602-1.172 2.602-2.604v-5.963s-.222 6.51-6.4 8.567z" transform="translate(178.77 265.737)"/>
        </g>
        <g>
            <path fill="#FEF9B5" d="M0.665 15.992L19.674 25.507 76.703 0.133z" transform="translate(104.085 26.123)"/>
            <path fill="#FFE403" d="M22.842 41.365L19.674 25.507 76.703 0.133z" transform="translate(104.085 26.123)"/>
            <path fill="#D3BD02" d="M22.842 41.365L29.179 28.679 45.02 25.507z" transform="translate(104.085 26.123)"/>
            <path fill="#FEF9B5" d="M29.179 28.679L45.02 35.022 76.703 0.133z" transform="translate(104.085 26.123)"/>
        </g>
    </g>
</svg>
